<svg width="24" height="24" viewBox="0 0 24 24" fill="none" xmlns="http://www.w3.org/2000/svg">
<g id="icons/Line/Crypto">
<path id="Vector" d="M12 1.00098C9.82441 1.00098 7.69767 1.64612 5.88873 2.85481C4.07979 4.06351 2.66989 5.78147 1.83733 7.79146C1.00477 9.80145 0.786929 12.0132 1.21137 14.147C1.6358 16.2808 2.68345 18.2408 4.22183 19.7792C5.76021 21.3175 7.72022 22.3652 9.85401 22.7896C11.9878 23.2141 14.1995 22.9962 16.2095 22.1637C18.2195 21.3311 19.9375 19.9212 21.1462 18.1122C22.3549 16.3033 23 14.1766 23 12.001C23 9.0836 21.8411 6.2857 19.7782 4.2228C17.7153 2.1599 14.9174 1.00098 12 1.00098ZM12 21.001C10.22 21.001 8.47992 20.4731 6.99987 19.4842C5.51983 18.4953 4.36628 17.0897 3.68509 15.4451C3.0039 13.8006 2.82567 11.991 3.17294 10.2452C3.5202 8.49933 4.37737 6.89569 5.63604 5.63702C6.89472 4.37834 8.49836 3.52118 10.2442 3.17391C11.99 2.82664 13.7996 3.00487 15.4442 3.68606C17.0887 4.36725 18.4943 5.5208 19.4832 7.00084C20.4722 8.48089 21 10.2209 21 12.001C21 14.3879 20.0518 16.6771 18.364 18.3649C16.6761 20.0528 14.387 21.001 12 21.001ZM12.59 7.67098C13.1034 7.68408 13.6069 7.81541 14.0613 8.05475C14.5157 8.29409 14.9088 8.635 15.21 9.05098C15.3706 9.2616 15.6082 9.3999 15.8707 9.43553C16.1332 9.47115 16.3991 9.40118 16.61 9.24098C16.715 9.16063 16.803 9.06028 16.8689 8.94571C16.9348 8.83115 16.9774 8.70465 16.9941 8.57353C17.0109 8.44241 17.0015 8.30927 16.9664 8.18181C16.9314 8.05436 16.8714 7.93511 16.79 7.83098C16.3035 7.17187 15.6714 6.63402 14.9428 6.25936C14.2143 5.8847 13.4091 5.68334 12.59 5.67098C11.4448 5.7043 10.3378 6.08994 9.41978 6.77532C8.50176 7.46071 7.81741 8.4125 7.46 9.50098H6C5.73479 9.50098 5.48043 9.60633 5.2929 9.79387C5.10536 9.98141 5 10.2358 5 10.501C5 10.7662 5.10536 11.0205 5.2929 11.2081C5.48043 11.3956 5.73479 11.501 6 11.501H7C7 11.671 7 11.831 7 12.001C7 12.171 7 12.331 7 12.501H6C5.73479 12.501 5.48043 12.6063 5.2929 12.7939C5.10536 12.9814 5 13.2358 5 13.501C5 13.7662 5.10536 14.0205 5.2929 14.2081C5.48043 14.3956 5.73479 14.501 6 14.501H7.46C7.81741 15.5895 8.50176 16.5412 9.41978 17.2266C10.3378 17.912 11.4448 18.2977 12.59 18.331C13.4091 18.3186 14.2143 18.1173 14.9428 17.7426C15.6714 17.3679 16.3035 16.8301 16.79 16.171C16.8976 16.071 16.9818 15.9485 17.0367 15.8123C17.0916 15.6761 17.1158 15.5294 17.1077 15.3828C17.0995 15.2362 17.0591 15.0931 16.9894 14.9639C16.9197 14.8346 16.8223 14.7223 16.7043 14.6349C16.5863 14.5475 16.4505 14.4871 16.3065 14.4581C16.1625 14.4292 16.0139 14.4323 15.8712 14.4672C15.7286 14.5022 15.5954 14.5681 15.4811 14.6604C15.3668 14.7526 15.2743 14.8689 15.21 15.001C14.9088 15.417 14.5157 15.7579 14.0613 15.9972C13.6069 16.2365 13.1034 16.3679 12.59 16.381C11.9798 16.3569 11.3871 16.1698 10.8736 15.8392C10.3601 15.5086 9.94453 15.0465 9.67 14.501H12C12.2652 14.501 12.5196 14.3956 12.7071 14.2081C12.8946 14.0205 13 13.7662 13 13.501C13 13.2358 12.8946 12.9814 12.7071 12.7939C12.5196 12.6063 12.2652 12.501 12 12.501H9.05C9.02345 12.3354 9.00675 12.1685 9 12.001C9.00675 11.8335 9.02345 11.6665 9.05 11.501H12C12.2652 11.501 12.5196 11.3956 12.7071 11.2081C12.8946 11.0205 13 10.7662 13 10.501C13 10.2358 12.8946 9.98141 12.7071 9.79387C12.5196 9.60633 12.2652 9.50098 12 9.50098H9.67C9.95118 8.96478 10.3696 8.51284 10.8827 8.19132C11.3957 7.86981 11.9849 7.69024 12.59 7.67098Z" fill="#E6E6EB"/>
</g>
</svg>
