<svg width="24" height="24" viewBox="0 0 24 24" fill="none" xmlns="http://www.w3.org/2000/svg">
<g id="icons / Line / Dashboard">
<path id="Vector" d="M15.29 10.291L12.51 13.071C12.3436 13.0267 12.1723 13.0032 12 13.001C11.4696 13.001 10.9609 13.2117 10.5858 13.5868C10.2107 13.9618 10 14.4705 10 15.001C10.0023 15.1732 10.0258 15.3445 10.07 15.511L9.29003 16.291C9.1963 16.3839 9.12191 16.4945 9.07114 16.6164C9.02037 16.7383 8.99423 16.869 8.99423 17.001C8.99423 17.133 9.02037 17.2637 9.07114 17.3856C9.12191 17.5074 9.1963 17.618 9.29003 17.711C9.38299 17.8047 9.49359 17.8791 9.61545 17.9299C9.73731 17.9806 9.86802 18.0068 10 18.0068C10.132 18.0068 10.2627 17.9806 10.3846 17.9299C10.5065 17.8791 10.6171 17.8047 10.71 17.711L11.49 16.931C11.6565 16.9752 11.8278 16.9987 12 17.001C12.5305 17.001 13.0392 16.7903 13.4142 16.4152C13.7893 16.0401 14 15.5314 14 15.001C13.9978 14.8287 13.9743 14.6574 13.93 14.491L16.71 11.711C16.8983 11.5227 17.0041 11.2673 17.0041 11.001C17.0041 10.7347 16.8983 10.4793 16.71 10.291C16.5217 10.1027 16.2663 9.99689 16 9.99689C15.7337 9.99689 15.4783 10.1027 15.29 10.291ZM12 4.00098C10.6868 4.00098 9.38645 4.25963 8.1732 4.76218C6.95994 5.26473 5.85755 6.00132 4.92896 6.92991C3.0536 8.80527 2.00003 11.3488 2.00003 14.001C1.99511 15.9815 2.58375 17.9182 3.69003 19.561C3.83855 19.7811 4.06844 19.9332 4.32911 19.9839C4.58979 20.0345 4.8599 19.9795 5.08003 19.831C5.30016 19.6825 5.45227 19.4526 5.50291 19.1919C5.55354 18.9312 5.49855 18.6611 5.35003 18.441C4.54455 17.2365 4.08131 15.8359 4.00978 14.3887C3.93826 12.9415 4.26113 11.502 4.94392 10.224C5.62671 8.94599 6.64378 7.87741 7.88653 7.13236C9.12928 6.38732 10.5511 5.99379 12 5.99379C13.449 5.99379 14.8708 6.38732 16.1135 7.13236C17.3563 7.87741 18.3734 8.94599 19.0561 10.224C19.7389 11.502 20.0618 12.9415 19.9903 14.3887C19.9188 15.8359 19.4555 17.2365 18.65 18.441C18.5763 18.5499 18.5248 18.6723 18.4985 18.8012C18.4722 18.9301 18.4716 19.0629 18.4966 19.192C18.5217 19.3211 18.572 19.444 18.6447 19.5537C18.7173 19.6633 18.8109 19.7575 18.92 19.831C19.0856 19.9422 19.2806 20.0014 19.48 20.001C19.6438 20.0012 19.8052 19.9612 19.9499 19.8845C20.0946 19.8078 20.2183 19.6967 20.31 19.561C21.4163 17.9182 22.005 15.9815 22 14.001C22 11.3488 20.9465 8.80527 19.0711 6.92991C17.1957 5.05454 14.6522 4.00098 12 4.00098Z" fill="#E6E6EB"/>
</g>
</svg>
