<svg width="24" height="24" viewBox="0 0 24 24" fill="none" xmlns="http://www.w3.org/2000/svg">
<g id="icons/Line/Menu_Close">
<path id="Vector" d="M19.0717 6.34329L6.34383 19.0712C6.15629 19.2587 5.90194 19.3641 5.63672 19.3641C5.3715 19.3641 5.11715 19.2587 4.92961 19.0712C4.74208 18.8837 4.63672 18.6293 4.63672 18.3641C4.63672 18.0989 4.74208 17.8445 4.92961 17.657L17.6575 4.92908C17.8451 4.74154 18.0994 4.63618 18.3646 4.63618C18.6299 4.63618 18.8842 4.74154 19.0717 4.92908C19.2593 5.11661 19.3646 5.37097 19.3646 5.63618C19.3646 5.9014 19.2593 6.15576 19.0717 6.34329Z" fill="white"/>
<path id="Vector_2" d="M4.92825 6.34329L17.6562 19.0712C17.8437 19.2587 18.0981 19.3641 18.3633 19.3641C18.6285 19.3641 18.8829 19.2587 19.0704 19.0712C19.2579 18.8837 19.3633 18.6293 19.3633 18.3641C19.3633 18.0989 19.2579 17.8445 19.0704 17.657L6.34247 4.92908C6.15493 4.74154 5.90058 4.63618 5.63536 4.63618C5.37014 4.63618 5.11579 4.74154 4.92825 4.92908C4.74072 5.11661 4.63536 5.37097 4.63536 5.63618C4.63536 5.9014 4.74072 6.15576 4.92825 6.34329Z" fill="white"/>
</g>
</svg>
