<svg width="22" height="17" viewBox="0 0 22 17" fill="none" xmlns="http://www.w3.org/2000/svg">
<g id="Iconly/Light Outline/3 User">
<g id="3 User">
<path id="Combined Shape" fill-rule="evenodd" clip-rule="evenodd" d="M10.8866 10.415L10.9995 10.415L11.2521 10.4159C13.1827 10.4286 17.5946 10.6236 17.5946 13.614C17.5946 16.5847 13.3365 16.7785 11.2822 16.7911L10.5211 16.7911C8.59038 16.7784 4.1776 16.5836 4.1776 13.597C4.1776 10.6225 8.59038 10.4285 10.5211 10.4159L10.7737 10.415C10.8129 10.415 10.8505 10.415 10.8866 10.415ZM10.8866 11.915C8.5106 11.915 5.6776 12.207 5.6776 13.597C5.6776 14.9555 8.34151 15.2731 10.6694 15.2911L10.8866 15.292C13.2626 15.292 16.0946 15.001 16.0946 13.614C16.0946 12.21 13.2626 11.915 10.8866 11.915ZM18.8402 10.0092C21.2632 10.3722 21.7722 11.5102 21.7722 12.4012C21.7722 12.9452 21.5582 13.9382 20.1282 14.4832C20.0402 14.5162 19.9502 14.5322 19.8612 14.5322C19.5592 14.5322 19.2742 14.3482 19.1602 14.0492C19.0122 13.6622 19.2072 13.2282 19.5942 13.0812C20.2722 12.8232 20.2722 12.5382 20.2722 12.4012C20.2722 11.9632 19.7152 11.6572 18.6172 11.4932C18.2082 11.4312 17.9252 11.0502 17.9862 10.6392C18.0472 10.2292 18.4272 9.95618 18.8402 10.0092ZM3.786 10.6392C3.847 11.0502 3.564 11.4312 3.155 11.4932C2.057 11.6572 1.5 11.9632 1.5 12.4012C1.5 12.5382 1.5 12.8222 2.179 13.0812C2.566 13.2282 2.761 13.6622 2.613 14.0492C2.499 14.3482 2.214 14.5322 1.912 14.5322C1.823 14.5322 1.733 14.5162 1.645 14.4832C0.214 13.9372 0 12.9442 0 12.4012C0 11.5112 0.509 10.3722 2.933 10.0092C3.346 9.95718 3.724 10.2292 3.786 10.6392ZM10.8866 0.000976562C13.4066 0.000976562 15.4556 2.05098 15.4556 4.56998C15.4556 7.08898 13.4066 9.13898 10.8866 9.13898H10.8596C9.6396 9.13498 8.4966 8.65698 7.6406 7.79298C6.7826 6.92998 6.3136 5.78398 6.31856 4.56698C6.31856 2.05098 8.3676 0.000976562 10.8866 0.000976562ZM10.8866 1.50098C9.1946 1.50098 7.81858 2.87798 7.81858 4.56998C7.8156 5.38998 8.1296 6.15698 8.7046 6.73598C9.2796 7.31498 10.0456 7.63598 10.8616 7.63898L10.8866 8.38898V7.63898C12.5786 7.63898 13.9556 6.26298 13.9556 4.56998C13.9556 2.87798 12.5786 1.50098 10.8866 1.50098ZM17.0756 0.980477C18.8336 1.26948 20.1106 2.77348 20.1106 4.55648C20.1066 6.35148 18.7656 7.89148 16.9906 8.14048C16.9556 8.14548 16.9206 8.14748 16.8866 8.14748C16.5186 8.14748 16.1976 7.87648 16.1446 7.50148C16.0876 7.09048 16.3726 6.71148 16.7836 6.65448C17.8236 6.50848 18.6086 5.60648 18.6106 4.55448C18.6106 3.51148 17.8626 2.62948 16.8316 2.46048C16.4236 2.39348 16.1466 2.00748 16.2136 1.59848C16.2816 1.18948 16.6646 0.915477 17.0756 0.980477ZM5.5596 1.59848C5.6266 2.00748 5.3496 2.39348 4.9416 2.46048C3.9106 2.62948 3.1626 3.51148 3.1626 4.55648C3.1646 5.60648 3.9496 6.50948 4.9886 6.65448C5.3996 6.71148 5.6846 7.09048 5.6276 7.50148C5.5746 7.87648 5.2536 8.14748 4.8856 8.14748C4.8516 8.14748 4.8166 8.14548 4.7816 8.14048C3.0066 7.89148 1.6666 6.35148 1.6626 4.55848C1.6626 2.77348 2.9396 1.26948 4.6976 0.980477C5.1186 0.914477 5.4916 1.19148 5.5596 1.59848Z" fill="white"/>
</g>
</g>
</svg>
