<svg width="23" height="18" viewBox="0 0 23 18" fill="none" xmlns="http://www.w3.org/2000/svg">
<g id="Folders">
<path id="Vector (Stroke)" fill-rule="evenodd" clip-rule="evenodd" d="M2.625 5.87598V15.876H16.375V8.12598H10.125C9.74635 8.12598 9.37792 8.00317 9.075 7.77598L6.54167 5.87598H2.625ZM1.13756 4.38854C1.46575 4.06035 1.91087 3.87598 2.375 3.87598H6.625C7.00365 3.87598 7.37208 3.99879 7.675 4.22598L10.2083 6.12598H16.625C17.0891 6.12598 17.5342 6.31035 17.8624 6.63854C18.1906 6.96673 18.375 7.41185 18.375 7.87598V16.2093C18.375 16.6513 18.1994 17.0753 17.8868 17.3878C17.5743 17.7004 17.1504 17.876 16.7083 17.876H2.375C1.91087 17.876 1.46575 17.6916 1.13756 17.3634C0.809374 17.0352 0.625 16.5901 0.625 16.126V5.62598C0.625 5.16185 0.809375 4.71673 1.13756 4.38854Z" fill="#E6E6EB"/>
<path id="Vector (Stroke)_2" fill-rule="evenodd" clip-rule="evenodd" d="M6.375 2.12598V4.87598C6.375 5.42826 5.92728 5.87598 5.375 5.87598C4.82272 5.87598 4.375 5.42826 4.375 4.87598V1.87598C4.375 1.41185 4.55938 0.966728 4.88756 0.63854C5.21575 0.310352 5.66087 0.125977 6.125 0.125977H10.375C10.7536 0.125977 11.1221 0.248787 11.425 0.475976L13.9583 2.37598H20.375C20.8391 2.37598 21.2842 2.56035 21.6124 2.88854C21.9406 3.21673 22.125 3.66185 22.125 4.12598V12.4593C22.125 12.9013 21.9494 13.3253 21.6368 13.6378C21.3243 13.9504 20.9004 14.126 20.4583 14.126H17.375C16.8227 14.126 16.375 13.6783 16.375 13.126C16.375 12.5737 16.8227 12.126 17.375 12.126H20.125V4.37598H13.875C13.4964 4.37598 13.1279 4.25317 12.825 4.02598L10.2917 2.12598H6.375Z" fill="#E6E6EB"/>
</g>
</svg>
