<svg width="14" height="12" viewBox="0 0 14 12" fill="none" xmlns="http://www.w3.org/2000/svg">
<g id="ShoppingBag">
<path id="Vector (Stroke)" fill-rule="evenodd" clip-rule="evenodd" d="M1.66732 1.66634V10.333H12.334V1.66634H1.66732ZM0.333984 1.49967C0.333984 0.855342 0.856319 0.333008 1.50065 0.333008H12.5007C13.145 0.333008 13.6673 0.855342 13.6673 1.49967V10.4997C13.6673 11.144 13.145 11.6663 12.5007 11.6663H1.50065C0.856319 11.6663 0.333984 11.144 0.333984 10.4997V1.49967Z" fill="white"/>
<path id="Vector (Stroke)_2" fill-rule="evenodd" clip-rule="evenodd" d="M4.50065 2.83301C4.86884 2.83301 5.16732 3.13148 5.16732 3.49967C5.16732 3.9859 5.36047 4.45222 5.70429 4.79604C6.04811 5.13985 6.51442 5.33301 7.00065 5.33301C7.48688 5.33301 7.9532 5.13985 8.29701 4.79604C8.64083 4.45222 8.83398 3.9859 8.83398 3.49967C8.83398 3.13148 9.13246 2.83301 9.50065 2.83301C9.86884 2.83301 10.1673 3.13148 10.1673 3.49967C10.1673 4.33953 9.83369 5.14498 9.23982 5.73885C8.64596 6.33271 7.8405 6.66634 7.00065 6.66634C6.1608 6.66634 5.35534 6.33271 4.76148 5.73885C4.16761 5.14498 3.83398 4.33953 3.83398 3.49967C3.83398 3.13148 4.13246 2.83301 4.50065 2.83301Z" fill="white"/>
</g>
</svg>
